<svg xmlns="http://www.w3.org/2000/svg" width="980" height="760" viewBox="0 0 980 760">
  <defs>
    <linearGradient id="g" x1="0" x2="1" y1="0" y2="1">
      <stop offset="0" stop-color="#f0cd8e" stop-opacity=".85"/>
      <stop offset=".55" stop-color="#d7aa68" stop-opacity=".45"/>
      <stop offset="1" stop-color="#32271c" stop-opacity=".15"/>
    </linearGradient>
    <filter id="blur"><feGaussianBlur stdDeviation="1.2"/></filter>
  </defs>
  <rect width="980" height="760" fill="transparent"/>
  <g opacity=".22" filter="url(#blur)">
    <rect x="100" y="130" width="310" height="520" rx="10" fill="#d7aa68"/>
    <rect x="130" y="160" width="250" height="18" fill="#101722"/>
    <rect x="130" y="205" width="250" height="18" fill="#101722"/>
    <rect x="130" y="250" width="250" height="18" fill="#101722"/>
    <rect x="130" y="295" width="250" height="18" fill="#101722"/>
    <rect x="130" y="340" width="250" height="18" fill="#101722"/>
    <rect x="130" y="385" width="250" height="18" fill="#101722"/>
    <rect x="130" y="430" width="250" height="18" fill="#101722"/>
  </g>
  <g transform="translate(545 118)" opacity=".78">
    <path d="M155 20 L155 535" stroke="url(#g)" stroke-width="10" stroke-linecap="round"/>
    <path d="M100 120 H210" stroke="url(#g)" stroke-width="8" stroke-linecap="round"/>
    <path d="M82 120 L35 250 M228 120 L275 250" stroke="url(#g)" stroke-width="5"/>
    <path d="M12 250 H58 C52 288 18 288 12 250Z" fill="none" stroke="url(#g)" stroke-width="7"/>
    <path d="M252 250 H298 C292 288 258 288 252 250Z" fill="none" stroke="url(#g)" stroke-width="7"/>
    <path d="M70 545 H240" stroke="url(#g)" stroke-width="13" stroke-linecap="round"/>
    <path d="M112 565 H198" stroke="url(#g)" stroke-width="10" stroke-linecap="round"/>
    <circle cx="155" cy="86" r="36" fill="none" stroke="url(#g)" stroke-width="7"/>
    <path d="M155 122 C110 165 100 240 120 330 C138 415 175 455 205 515" fill="none" stroke="url(#g)" stroke-width="7" opacity=".75"/>
  </g>
</svg>