<svg xmlns="http://www.w3.org/2000/svg" width="980" height="760" viewBox="0 0 980 760">
<defs>
<linearGradient id="g" x1="0" x2="1" y1="0" y2="1">
<stop offset="0" stop-color="#f0cd8e" stop-opacity=".9"/>
<stop offset=".55" stop-color="#d7aa68" stop-opacity=".48"/>
<stop offset="1" stop-color="#32271c" stop-opacity=".10"/>
</linearGradient>
<filter id="b"><feGaussianBlur stdDeviation="1.1"/></filter>
</defs>
<rect width="980" height="760" fill="transparent"/>
<g opacity=".18" filter="url(#b)">
<rect x="95" y="125" width="330" height="520" rx="10" fill="#d7aa68"/>
<g fill="#080d14">
<rect x="130" y="165" width="250" height="16"/><rect x="130" y="210" width="250" height="16"/><rect x="130" y="255" width="250" height="16"/><rect x="130" y="300" width="250" height="16"/><rect x="130" y="345" width="250" height="16"/><rect x="130" y="390" width="250" height="16"/><rect x="130" y="435" width="250" height="16"/>
</g></g>
<g transform="translate(560 110)" opacity=".82">
<path d="M155 20 L155 535" stroke="url(#g)" stroke-width="10" stroke-linecap="round"/>
<path d="M98 120 H212" stroke="url(#g)" stroke-width="8" stroke-linecap="round"/>
<path d="M82 120 L35 250 M228 120 L275 250" stroke="url(#g)" stroke-width="5"/>
<path d="M12 250 H58 C52 288 18 288 12 250Z" fill="none" stroke="url(#g)" stroke-width="7"/>
<path d="M252 250 H298 C292 288 258 288 252 250Z" fill="none" stroke="url(#g)" stroke-width="7"/>
<path d="M70 545 H240" stroke="url(#g)" stroke-width="13" stroke-linecap="round"/>
<path d="M112 565 H198" stroke="url(#g)" stroke-width="10" stroke-linecap="round"/>
<circle cx="155" cy="86" r="36" fill="none" stroke="url(#g)" stroke-width="7"/>
</g>
</svg>